# This file uses centimeters as units for non-parametric coordinates.

mtllib MannWoodBridge.mtl
g default
v -100.000000 -50.000000 -379.101256
v 25.881901 -50.000000 -577.088072
v 25.881901 50.000000 -577.088072
v 0.000012 50.000000 -580.495512
v 0.000012 -50.000000 -580.495512
v 70.710648 -50.000000 -551.206190
v 86.602493 -50.000000 -530.495527
v -86.602509 50.000000 -530.495543
v -96.592552 50.000000 -506.377455
v 49.999981 -50.000000 -567.098051
v 49.999981 50.000000 -567.098051
v -100.000000 50.000000 -379.101256
v -100.000000 50.000000 -424.110167
v -99.449478 50.000000 -469.320585
v 86.602493 50.000000 -530.495527
v 70.710648 50.000000 -551.206190
v 96.592537 50.000000 -506.377440
v 96.592537 -50.000000 -506.377440
v 100.000000 50.000000 -428.852232
v 100.000000 -50.000000 -428.852232
v 99.449501 50.000000 -483.355131
v 99.449501 -50.000000 -483.355131
v -100.000000 -50.000000 -424.110167
v -99.449478 -50.000000 -469.320585
v -25.881880 50.000000 -577.088103
v -25.881880 -50.000000 -577.088103
v -96.592552 -50.000000 -506.377455
v -49.999969 50.000000 -567.098051
v -49.999969 -50.000000 -567.098051
v -86.602509 -50.000000 -530.495543
v -70.710648 50.000000 -551.206221
v -70.710648 -50.000000 -551.206221
v 124.786407 -50.000000 -729.417326
v 57.165226 -50.000000 -729.417326
v 0.569080 -50.000000 -729.417326
v -50.131577 -50.000000 -729.417326
v -141.934372 -50.000000 -729.417326
v 195.330093 -50.000000 -729.417326
v 200.000015 -45.330074 -729.417326
v 198.632233 -48.632210 -729.417326
v 195.933350 -50.000000 -651.456083
v 198.815979 -48.484905 -653.834227
v 200.000015 -44.796288 -654.953520
v 200.000015 -45.330074 -379.101256
v 198.632233 -48.632210 -380.469053
v 195.330093 -50.000000 -383.771177
v 100.000000 -45.330074 -379.101256
v 100.000000 -50.000000 -383.771177
v 100.000000 -48.632210 -380.469053
v 198.632233 48.632210 -729.417326
v 200.000015 45.330074 -729.417326
v 200.000015 44.761803 -659.114683
v 198.814590 48.456173 -658.294707
v 195.977875 50.000000 -655.993498
v 195.330093 50.000000 -383.771177
v 198.632233 48.632210 -380.469053
v 200.000015 45.330074 -379.101256
v 100.000000 45.330074 -379.101256
v 100.000000 48.632210 -380.469053
v 100.000000 50.000000 -383.771177
v -200.000000 45.330074 -729.417326
v -198.632217 48.632210 -729.417326
v -196.072418 50.000000 -665.245299
v -198.848846 48.443832 -667.763365
v -200.000000 44.690533 -668.792174
v -198.632217 -48.632210 -379.101256
v -195.330078 -50.000000 -379.101256
v -200.000000 -45.330074 -379.101256
v -195.329605 -50.000000 -426.674956
v -198.631821 -48.632092 -426.717924
v -200.000000 -45.330544 -426.643980
v 195.333435 -50.000000 -433.976439
v 198.633133 -48.631161 -434.147276
v 200.000015 -45.326736 -434.205046
v 195.321838 -50.000000 -488.404402
v 198.628326 -48.633156 -488.442579
v 200.000015 -45.338345 -488.187056
v 195.343811 -50.000000 -517.121016
v 198.636078 -48.628036 -517.471663
v 200.000015 -45.316395 -517.601881
v 195.339264 -50.000000 -546.835859
v 198.639908 -48.634548 -547.496809
v 200.000015 -45.320927 -548.101484
v -198.632217 -48.632210 -729.417326
v -200.000000 -45.330074 -729.417326
v -195.330078 -50.000000 -729.417326
v -196.067642 -50.000000 -664.766508
v -198.849014 -48.446987 -667.293760
v -200.000000 -44.694073 -668.354796
v -195.856216 -50.000000 -610.791533
v -198.786774 -48.494370 -612.950072
v -200.000000 -44.857483 -613.853087
v -195.479767 -50.000000 -542.665465
v -198.675888 -48.589558 -543.835905
v -200.000000 -45.185036 -544.315962
v -195.358856 -50.000000 -484.934965
v -198.642441 -48.625652 -485.524290
v -200.000000 -45.301476 -485.877730
v -198.632217 48.632210 -379.101256
v -200.000000 45.330074 -379.101256
v -195.330078 50.000000 -379.101256
v -200.000000 45.331337 -423.602690
v -198.631775 48.632519 -423.501036
v -195.328812 50.000000 -423.477095
v -200.000000 45.285267 -489.486250
v -198.643234 48.616821 -489.344328
v -195.375320 50.000000 -488.737929
v -200.000000 45.186241 -544.161162
v -198.675842 48.590256 -543.671614
v -195.478485 50.000000 -542.501173
v -200.000000 44.854816 -614.133543
v -198.786819 48.492432 -613.249937
v -195.859528 50.000000 -611.095183
v 195.388092 50.000004 -558.431990
v 198.640747 48.606766 -559.098982
v 200.000015 45.272797 -559.045302
v 200.000015 45.317696 -517.104719
v 198.636017 48.628746 -516.945402
v 195.342514 50.000004 -516.597029
v 195.321106 50.000004 -478.919630
v 198.628296 48.633556 -478.902556
v 200.000015 45.339088 -479.166807
v 195.330063 50.000000 -433.751616
v 198.632217 48.632217 -433.758116
v 200.000015 45.330101 -433.773833
v -144.606964 49.692532 -729.417326
v -144.567291 49.909691 -729.339293
v -144.460312 50.000000 -729.151610
v -195.334473 50.000000 -729.037779
v -195.434296 49.957363 -729.305906
v -195.680725 49.854755 -729.417326
v -52.403210 49.710541 -729.417326
v -52.393311 49.915150 -729.333708
v -52.360130 50.000000 -729.132078
v -0.592250 49.712650 -729.417326
v -0.594279 49.915836 -729.333159
v -0.594447 50.000000 -729.129973
v 61.782978 49.708935 -729.417326
v 61.772873 49.914562 -729.334074
v 61.729595 50.000000 -729.133726
v 125.763779 49.698864 -729.417326
v 125.728523 49.911724 -729.337340
v 125.639359 50.000000 -729.144438
v 195.333435 50.000000 -729.037779
v 195.680740 49.854755 -729.417326
v 195.433945 49.957386 -729.305968
vt 0.416667 0.312500
vt 0.416667 0.688440
vt 0.427083 0.688440
vt 0.427083 0.312500
vt 0.406250 0.312500
vt 0.406250 0.688440
vt 0.395833 0.312500
vt 0.395833 0.688440
vt 0.385417 0.312500
vt 0.385417 0.688440
vt 0.375000 0.312500
vt 0.375000 0.688440
vt 0.616266 0.688440
vt 0.625000 0.688440
vt 0.625000 0.312500
vt 0.616266 0.312500
vt 0.437500 0.500688
vt 0.562500 0.500688
vt 0.437500 0.494773
vt 0.437500 0.750000
vt 0.562500 0.750000
vt 0.562500 0.749312
vt 0.437500 0.749312
vt 0.437500 0.688440
vt 0.437500 0.312500
vt 0.487900 0.312500
vt 0.479167 0.312500
vt 0.479167 0.688440
vt 0.487900 0.688440
vt 0.447917 0.688440
vt 0.447917 0.312500
vt 0.468750 0.312500
vt 0.468750 0.688440
vt 0.458333 0.688440
vt 0.458333 0.312500
vt 0.498742 0.141176
vt 0.500871 0.125000
vt 0.498742 0.108824
vt 0.492498 0.093750
vt 0.625000 0.261675
vt 0.380948 0.187500
vt 0.363325 0.187500
vt 0.136675 0.250000
vt 0.136675 0.187500
vt 0.379426 0.502919
vt 0.380948 0.562500
vt 0.625000 0.761675
vt 0.375000 0.988325
vt 0.377919 0.756163
vt 0.487465 0.488182
vt 0.547408 0.263009
vt 0.363325 0.250000
vt 0.438371 0.187500
vt 0.379426 0.247081
vt 0.375000 0.761675
vt 0.402813 0.761672
vt 0.440985 0.187156
vt 0.410803 0.247083
vt 0.454548 0.185370
vt 0.443353 0.247076
vt 0.469621 0.179127
vt 0.461262 0.247090
vt 0.482566 0.169194
vt 0.479834 0.247087
vt 0.492498 0.156250
vt 0.625000 0.247081
vt 0.545222 0.247458
vt 0.482566 0.080806
vt 0.585807 0.002458
vt 0.469621 0.070873
vt 0.519806 0.002590
vt 0.454548 0.064630
vt 0.477228 0.002825
vt 0.440985 0.062844
vt 0.441589 0.002901
vt 0.440985 0.062500
vt 0.406502 0.002919
vt 0.375000 0.002919
vt 0.440985 0.687500
vt 0.437500 0.881970
vt 0.477125 0.747174
vt 0.469621 0.679127
vt 0.478259 0.987963
vt 0.548387 0.762863
vt 0.404714 0.988326
vt 0.443991 0.761787
vt 0.440985 0.687156
vt 0.404503 0.747081
vt 0.441735 0.988254
vt 0.478162 0.762034
vt 0.443964 0.747110
vt 0.454548 0.685370
vt 0.546905 0.747412
vt 0.482566 0.669194
vt 0.523156 0.987144
vt 0.571057 0.763274
vt 0.588037 0.986735
vt 0.625000 0.988325
vt 0.469621 0.570873
vt 0.550008 0.486905
vt 0.625000 0.488325
vt 0.460935 0.502911
vt 0.440985 0.562844
vt 0.437541 0.488348
vt 0.461563 0.261709
vt 0.461252 0.488294
vt 0.480625 0.261698
vt 0.487082 0.502882
vt 0.454548 0.564630
vt 0.437425 0.502924
vt 0.438371 0.562500
vt 0.410664 0.502919
vt 0.409440 0.261683
vt 0.375000 0.488325
vt 0.409170 0.488325
vt 0.443179 0.261654
vt 0.562500 0.494773
vt 0.562500 0.379927
vt 0.556663 0.368030
vt 0.443337 0.368030
vt 0.437500 0.379927
vt 0.136675 0.000000
vt 0.363325 0.000000
vt 0.375000 0.062500
vt 0.125000 0.062500
vt 0.125000 0.002919
vt 0.375000 0.261675
vt 0.625000 0.002919
vt 0.625000 0.250000
vt 0.547257 0.250000
vt 0.375000 0.250000
vt 0.375000 0.187500
vt 0.562500 0.368030
vt 0.550161 0.500000
vt 0.375000 0.500000
vt 0.125000 0.250000
vt 0.375000 0.562500
vt 0.437500 0.368030
vt 0.125000 0.187500
vt 0.625000 0.750000
vt 0.570049 0.750000
vt 0.375000 0.000000
vt 0.375000 1.000000
vt 0.404812 1.000000
vt 0.404812 0.000000
vt 0.409454 0.250000
vt 0.443468 0.250000
vt 0.461579 0.250000
vt 0.480272 0.250000
vt 0.625000 1.000000
vt 0.589045 0.000000
vt 0.589045 1.000000
vt 0.521710 0.000000
vt 0.521710 1.000000
vt 0.478264 0.000000
vt 0.478264 1.000000
vt 0.441618 1.000000
vt 0.441618 0.000000
vt 0.125000 0.000000
vt 0.375000 0.750000
vt 0.402716 0.750000
vt 0.444108 0.750000
vt 0.478157 0.750000
vt 0.549834 0.750000
vt 0.487822 0.500000
vt 0.461236 0.500000
vt 0.437251 0.500000
vt 0.409157 0.500000
vt 0.624659 0.747084
vt 0.875000 0.002608
vt 0.625000 0.036291
vt 0.874276 0.061592
vt 0.624783 0.715288
vt 0.498742 0.641176
vt 0.624760 0.625371
vt 0.498742 0.608824
vt 0.625000 0.125356
vt 0.874272 0.163614
vt 0.625000 0.093668
vt 0.874282 0.124630
vt 0.624764 0.688412
vt 0.500871 0.625000
vt 0.625000 0.160728
vt 0.874247 0.203602
vt 0.624765 0.586419
vt 0.492498 0.593750
vt 0.567391 0.747545
vt 0.492498 0.656250
vt 0.624777 0.546475
vt 0.482566 0.580806
vt 0.548058 0.502514
vt 0.636675 0.250000
vt 0.625000 0.202992
vt 0.875000 0.250000
vt 0.863325 0.250000
vt 0.625000 0.000000
vt 0.636675 0.000000
vt 0.863325 0.000000
vt 0.875000 0.000000
vt 0.874231 0.034621
vt 0.625000 0.747391
vt 0.625000 0.500000
vt 0.625000 0.502609
vt 0.875000 0.247391
vt 0.624602 0.502917
vt 0.625000 0.715384
vt 0.875000 0.034616
vt 0.875000 0.002919
vt 0.625000 0.747081
vt 0.625000 0.688501
vt 0.875000 0.061499
vt 0.625000 0.625372
vt 0.875000 0.124628
vt 0.625000 0.586377
vt 0.875000 0.163623
vt 0.625000 0.546396
vt 0.875000 0.203604
vt 0.875000 0.247081
vt 0.625000 0.502919
vn -0.258819 0.000000 0.965926
vn -0.258819 0.000000 0.965926
vn -0.000001 0.000000 1.000000
vn -0.000001 0.000000 1.000000
vn -0.500000 0.000000 0.866026
vn -0.500000 0.000000 0.866026
vn -0.707107 0.000000 0.707107
vn -0.707107 0.000000 0.707107
vn -0.866025 0.000000 0.500000
vn -0.866025 0.000000 0.500000
vn -0.964813 0.000000 0.262937
vn -0.964813 0.000000 0.262937
vn -0.992388 0.000000 0.123151
vn -0.992388 0.000000 0.123151
vn -0.999949 0.000000 0.010100
vn -0.999949 0.000000 0.010100
vn -0.999986 0.000000 0.005287
vn -0.999986 0.000000 0.005287
vn 0.999926 0.000000 0.012176
vn 0.999926 0.000000 0.012176
vn 0.999926 0.000000 0.012176
vn 0.999926 0.000000 0.012176
vn 0.258819 0.000000 0.965926
vn 0.258819 0.000000 0.965926
vn 0.997041 0.000000 0.076868
vn 0.978653 0.000000 0.205521
vn 0.978653 0.000000 0.205521
vn 0.997041 0.000000 0.076868
vn 0.500000 0.000000 0.866026
vn 0.500000 0.000000 0.866026
vn 0.866025 0.000000 0.500000
vn 0.866025 0.000000 0.500000
vn 0.707107 0.000000 0.707107
vn 0.707107 0.000000 0.707107
vn 0.000000 -1.000000 0.000000
vn 0.000000 -1.000000 0.000000
vn 0.000000 -1.000000 -0.000000
vn 0.000000 -1.000000 -0.000000
vn 0.000000 -1.000000 0.000000
vn 0.000000 -1.000000 0.000000
vn 0.000000 -1.000000 -0.000000
vn 0.000000 -1.000000 -0.000000
vn 0.000000 -1.000000 -0.000000
vn 0.000000 -1.000000 -0.000000
vn 1.000000 0.000000 0.000000
vn 1.000000 0.000000 0.000000
vn 1.000000 0.000000 0.000000
vn 1.000000 0.000000 0.000000
vn 0.008003 -0.999968 -0.000025
vn 0.422074 -0.906560 -0.001294
vn 0.422286 -0.906462 -0.000485
vn 0.011568 -0.999933 0.000010
vn 0.939393 -0.342842 0.000406
vn 0.999899 -0.014234 0.000017
vn 0.999910 -0.013457 0.000002
vn 0.939706 -0.341982 -0.000070
vn 0.019882 -0.999113 0.037109
vn 0.000000 -0.923879 0.382685
vn 0.000000 -0.923879 0.382685
vn 0.000000 -0.999628 0.027272
vn 0.000000 -0.382686 0.923879
vn 0.000000 -0.011186 0.999937
vn 0.000000 -0.014459 0.999895
vn 0.000000 -0.382686 0.923879
vn 0.999909 0.013467 0.000023
vn 0.939427 0.342749 0.000593
vn 0.939966 0.341270 0.000007
vn 0.999917 0.012884 0.000005
vn 0.000000 0.011186 0.999937
vn 0.000000 0.382686 0.923879
vn 0.000000 0.382686 0.923879
vn 0.000000 0.014459 0.999895
vn 0.000000 0.923879 0.382685
vn 0.010393 0.999756 0.019521
vn -0.000000 0.999905 0.013794
vn 0.000000 0.923879 0.382685
vn -0.941807 0.336154 0.000608
vn -0.999906 0.013703 0.000025
vn -0.999913 0.013201 0.000014
vn -0.947911 0.318535 0.000237
vn -0.014244 -0.999899 -0.000000
vn -0.382691 -0.923876 -0.000005
vn -0.383642 -0.923482 0.000042
vn -0.014935 -0.999889 0.000002
vn -0.923849 -0.382757 -0.000002
vn -0.999887 -0.015032 -0.000000
vn -0.999899 -0.014215 -0.000001
vn -0.924384 -0.381464 -0.000019
vn -0.999901 0.014077 0.000000
vn -0.923839 0.382782 0.000002
vn -0.924511 0.381155 -0.000057
vn -0.999890 0.014851 -0.000002
vn -0.382604 0.923912 -0.000004
vn -0.013774 0.999905 -0.000000
vn -0.015213 0.999884 0.000001
vn -0.384723 0.923032 0.000034
vn 0.999908 0.013580 -0.000011
vn 0.936161 0.351571 -0.000293
vn 0.924623 0.380884 -0.000146
vn 0.999863 0.016574 -0.000007
vn 0.422972 0.906142 0.000736
vn 0.015954 0.999873 0.000024
vn 0.016157 0.999869 0.000002
vn 0.386407 0.922328 0.000035
vn 0.999890 -0.014838 -0.000010
vn 0.000000 -1.000000 -0.000000
vn 0.014356 -0.999897 -0.000001
vn 0.000000 -1.000000 -0.000000
vn 0.014397 -0.999896 0.000000
vn 0.000000 -1.000000 0.000000
vn 0.014339 -0.999897 0.000004
vn 0.000000 -1.000000 0.000000
vn 0.015548 -0.999879 0.000026
vn 0.000000 -1.000000 -0.000000
vn -0.008815 -0.999961 -0.000002
vn -0.007980 -0.999968 -0.000036
vn 0.000000 -1.000000 0.000000
vn 0.000000 -1.000000 0.000000
vn -0.017807 -0.999841 0.000035
vn 0.000000 -1.000000 0.000000
vn -0.017254 -0.999851 0.000022
vn 0.000000 -1.000000 0.000000
vn -0.016159 -0.999869 0.000006
vn 0.000000 -1.000000 0.000000
vn 0.000000 -1.000000 0.000000
vn 0.000000 1.000000 0.000000
vn 0.000000 1.000000 0.000000
vn -0.016900 0.999857 0.000023
vn 0.000000 1.000000 0.000000
vn 0.000000 1.000000 -0.000000
vn -0.017863 0.999840 0.000035
vn -0.999900 -0.014125 -0.000010
vn -0.999905 0.013792 -0.000009
vn -0.999917 0.012860 -0.000007
vn -0.999918 -0.012789 -0.000006
vn -0.999894 0.014538 -0.000005
vn -0.999900 -0.014178 -0.000005
vn 0.000000 1.000000 0.000000
vn -0.016648 0.999861 0.000006
vn 0.000000 1.000000 -0.000000
vn -0.008998 0.999960 -0.000002
vn -0.999912 -0.013257 0.000014
vn -0.999905 -0.013798 0.000024
vn 0.011330 0.999936 0.000011
vn -0.000000 1.000000 0.000000
vn -0.000000 1.000000 -0.000000
vn -0.000000 1.000000 -0.000000
vn -0.000000 1.000000 0.000000
vn 0.008926 0.999960 0.000000
vn 0.999897 0.014329 -0.000001
vn 0.999888 -0.014938 -0.000001
vn 0.999923 -0.012425 0.000001
vn -0.000000 1.000000 -0.000000
vn 0.007001 0.999976 -0.000000
vn 0.999938 -0.011159 -0.000000
vn 0.999886 -0.015090 -0.000000
vn 0.999904 0.013841 0.000000
vn 0.999939 0.011080 -0.000000
vn -1.000000 0.000000 0.000000
vn -1.000000 0.000000 0.000000
vn -1.000000 0.000000 0.000000
vn -1.000000 0.000000 0.000000
vn -1.000000 0.000000 0.000000
vn -1.000000 0.000000 0.000000
vn 0.000000 0.000000 1.000000
vn 0.000000 0.000000 1.000000
vn 0.000000 0.000000 1.000000
vn 0.000000 0.000000 1.000000
vn 0.000000 0.000000 1.000000
vn 0.000000 0.000000 1.000000
vn 0.000000 0.000000 1.000000
vn 0.000000 0.000000 1.000000
vn 0.415264 -0.909701 0.000747
vn 0.936222 -0.351408 -0.000195
vn 0.382679 0.923881 -0.000000
vn 0.382489 0.923960 -0.000019
vn 0.923880 0.382683 -0.000000
vn 0.923719 0.383071 0.000002
vn -0.390157 -0.920748 0.000167
vn -0.926751 -0.375676 -0.000119
vn 0.923974 -0.382457 -0.000008
vn 0.923803 -0.382868 -0.000000
vn 0.382924 -0.923780 0.000006
vn 0.382753 -0.923851 -0.000018
vn 0.923739 -0.383024 -0.000016
vn 0.382860 -0.923806 0.000014
vn 0.924402 -0.381421 0.000036
vn 0.383418 -0.923575 0.000105
vn -0.941807 -0.336153 0.000583
vn -0.947905 -0.318553 0.000230
vn -0.432162 -0.901794 -0.001936
vn -0.442231 -0.896900 -0.001258
vn -0.945307 -0.326182 -0.000193
vn -0.456638 -0.889652 0.000844
vn -0.935085 -0.354423 -0.000250
vn -0.417314 -0.908762 0.000659
vn -0.926819 0.375508 -0.000120
vn -0.391429 0.920209 0.000167
vn -0.935374 0.353661 -0.000225
vn -0.418716 0.908117 0.000677
vn -0.945320 0.326143 -0.000204
vn -0.457396 0.889263 0.000839
vn -0.443118 0.896462 -0.001262
vn 0.430606 0.902540 -0.000487
vn 0.923687 0.383147 -0.000014
vn 0.382657 0.923891 0.000018
vn 0.000000 1.000000 -0.000614
vn 0.000037 0.939859 -0.341562
vn 0.000045 0.959993 -0.280025
vn -0.014063 0.999901 -0.000425
vn 0.000194 0.399617 -0.916682
vn 0.000001 0.000810 -1.000000
vn 0.000767 0.509231 -0.860630
vn 0.000767 0.509231 -0.860630
vn 0.000000 0.000000 -1.000000
vn 0.000000 0.000827 -1.000000
vn 0.000000 0.000000 -1.000000
vn 0.000000 1.000000 0.000000
vn 0.000000 1.000000 0.000000
vn 0.000000 1.000000 -0.000770
vn -0.000000 1.000000 -0.000770
vn 0.000000 1.000000 0.000000
vn 0.000000 1.000000 0.000000
vn -0.000000 1.000000 -0.000774
vn -0.000000 0.000000 -1.000000
vn 0.000000 0.000866 -1.000000
vn -0.000000 0.000833 -1.000000
vn -0.000000 0.000000 -1.000000
vn -0.000001 0.000857 -1.000000
vn -0.000000 0.000000 -1.000000
vn 0.000000 1.000000 0.000000
vn -0.000000 1.000000 -0.000473
vn 0.013552 0.999908 -0.000454
vn -0.000000 0.000000 -1.000000
vn -0.000000 0.000000 -1.000000
vn -0.000000 0.000000 -1.000000
vn -0.000000 0.000000 -1.000000
vn -0.000000 0.000000 -1.000000
vn -0.000000 0.000000 -1.000000
vn 0.000000 0.000000 -1.000000
vn 0.000000 0.000000 -1.000000
vn 0.000000 0.000000 -1.000000
vn 0.000000 0.000000 -1.000000
vn 0.000000 0.000000 -1.000000
vn 0.000000 0.000000 -1.000000
vn -0.432836 0.901471 -0.001949
vn -0.432836 0.901471 -0.001949
vn -0.432836 0.901471 -0.001949
vn 0.428125 0.903719 -0.001358
vn 0.428125 0.903719 -0.001358
vn 0.428125 0.903719 -0.001358
vn -0.000013 0.366221 -0.930528
vn 0.000021 0.915521 -0.402271
vn 0.000002 0.379667 -0.925123
vn -0.000001 0.922300 -0.386476
vn 0.000011 0.371266 -0.928527
vn -0.000016 0.917880 -0.396859
vn -0.000229 0.430694 -0.902498
vn -0.000038 0.948473 -0.316860
vn -0.000556 0.518213 -0.855251
vn -0.000556 0.518213 -0.855252
vn -0.000045 0.961985 -0.273101
s 1
g pCube5
usemtl initialShadingGroup
f 2/1/1 3/2/2 4/3/3 5/4/4
f 10/5/5 11/6/6 3/2/2 2/1/1
f 6/7/7 16/8/8 11/6/6 10/5/5
f 7/9/9 15/10/10 16/8/8 6/7/7
f 18/11/11 17/12/12 15/10/10 7/9/9
f 21/13/13 17/14/12 18/15/11 22/16/14
s 2
f 21/17/15 22/18/16 20/117/17 19/19/18
s off
f 23/21/19 24/22/20 14/23/21 13/20/22
s 1
f 5/4/4 4/3/3 25/24/23 26/25/24
f 24/26/25 27/27/26 9/28/27 14/29/28
f 26/25/24 25/24/23 28/30/29 29/31/30
f 30/32/31 8/33/32 9/28/27 27/27/26
f 29/31/30 28/30/29 31/34/33 32/35/34
f 32/35/34 31/34/33 8/33/32 30/32/31
s 4
f 2/36/35 34/183/36 33/193/37 10/65/38
f 5/37/39 35/177/40 34/183/36 2/36/35
f 26/38/41 36/179/42 35/177/40 5/37/39
f 29/39/43 37/171/44 36/179/42 26/38/41
s off
f 1/124/45 23/21/46 13/79/47 12/125/48
s 4
f 38/66/49 40/129/50 42/130/51 41/67/52
s 6
f 40/129/53 39/40/54 43/51/55 42/130/56
s 4
f 46/54/57 45/131/58 49/132/59 48/41/60
s 8
f 45/131/61 44/52/62 47/42/63 49/132/64
s 6
f 51/101/65 50/202/66 53/134/67 52/100/68
s 8
f 57/43/69 56/136/70 59/139/71 58/44/72
s 10
f 56/135/73 55/45/74 60/46/75 59/137/76
s 11
f 62/140/77 61/47/78 65/96/79 64/141/80
s 4
f 67/78/81 66/142/82 70/145/83 69/77/84
s 11
f 66/143/85 68/48/86 71/85/87 70/144/88
f 100/55/89 99/160/90 103/161/91 102/56/92
s 10
f 99/160/93 101/49/94 104/88/95 103/161/96
s 6
f 116/50/97 115/165/98 118/166/99 117/106/100
s 10
f 115/165/101 114/108/102 119/102/103 118/166/104
s 6
f 116/50/97 83/107/105 43/51/55 52/100/68
s 8
f 47/42/63 44/52/62 57/43/69 58/44/72
s 4
f 20/53/106 72/58/107 46/54/57 48/41/60
s 11
f 100/55/89 102/56/92 71/85/87 68/48/86
s 4
f 22/57/108 75/60/109 72/58/107 20/53/106
f 18/59/110 78/62/111 75/60/109 22/57/108
f 7/61/112 81/64/113 78/62/111 18/59/110
f 6/63/114 41/67/52 81/64/113 7/61/112
f 10/65/38 33/193/37 38/66/49 41/67/52 6/63/114
f 87/69/115 86/128/116 37/171/44 29/39/43 32/68/117
f 87/69/115 32/68/117 30/70/118 90/71/119
f 90/71/119 30/70/118 27/72/120 93/73/121
f 93/73/121 27/72/120 24/74/122 96/75/123
f 96/75/123 24/74/122 23/76/124 69/77/84
f 69/77/84 23/76/124 1/124/125 67/78/81
s 10
f 13/79/126 104/88/95 101/49/94 12/80/127
f 110/81/128 9/92/129 8/82/130 113/93/131
s 11
f 95/83/132 108/90/133 111/84/134 92/95/135
f 71/85/87 102/56/92 105/86/136 98/89/137
s 10
f 13/79/126 14/87/138 107/91/139 104/88/95
s 11
f 98/89/137 105/86/136 108/90/133 95/83/132
s 10
f 107/91/139 14/87/138 9/92/129 110/81/128
f 113/93/131 8/82/130 31/94/140 63/187/141
s 11
f 92/95/135 111/84/134 65/96/79 89/97/142
f 89/97/142 65/96/79 61/47/78 85/98/143
s 10
f 54/191/144 16/190/145 15/99/146 114/108/102
s 6
f 52/100/68 43/51/55 39/40/54 51/101/65
s 10
f 119/102/103 17/109/147 21/103/148 120/110/149
s 6
f 122/104/150 77/116/151 80/105/152 117/106/100
f 117/106/100 80/105/152 83/107/105 116/50/97
s 10
f 114/108/102 15/99/146 17/109/147 119/102/103
f 120/110/149 21/103/148 19/111/153 60/46/75 55/45/74 123/112/154
s 6
f 44/127/155 74/113/156 125/115/157 57/114/158
f 125/115/157 74/113/156 77/116/151 122/104/150
s 2
f 19/19/18 20/117/17 48/118/159 49/133/160 47/119/161 58/120/162 59/138/163 60/121/164
s off
f 99/159/165 100/122/166 68/123/167 66/142/168 67/78/169 1/124/170 12/125/171 101/126/172
s 4
f 41/67/52 42/130/51 82/149/173 81/64/113
s 6
f 42/130/56 43/51/55 83/107/105 82/149/174
s 10
f 55/45/74 56/135/175 124/168/176 123/112/154
s 6
f 56/135/177 57/114/158 125/115/157 124/168/178
s 4
f 69/77/84 70/145/83 97/158/179 96/75/123
s 11
f 70/144/88 71/85/87 98/89/137 97/157/180
s 6
f 44/127/155 45/131/181 73/146/182 74/113/156
s 4
f 45/131/183 46/54/57 72/58/107 73/146/184
s 6
f 74/113/156 73/146/182 76/147/185 77/116/151
s 4
f 73/146/184 72/58/107 75/60/109 76/147/186
s 6
f 77/116/151 76/147/185 79/148/187 80/105/152
s 4
f 76/147/186 75/60/109 78/62/111 79/148/188
s 6
f 80/105/152 79/148/187 82/149/174 83/107/105
s 4
f 79/148/188 78/62/111 81/64/113 82/149/173
s 11
f 85/98/143 84/150/189 88/152/190 89/97/142
s 4
f 84/196/191 86/128/116 87/69/115 88/151/192
s 11
f 89/97/142 88/152/190 91/154/193 92/95/135
s 4
f 88/151/192 87/69/115 90/71/119 91/153/194
s 11
f 92/95/135 91/154/193 94/156/195 95/83/132
s 4
f 91/153/194 90/71/119 93/73/121 94/155/196
s 11
f 95/83/132 94/156/195 97/157/180 98/89/137
s 4
f 94/155/196 93/73/121 96/75/123 97/158/179
s 11
f 102/56/92 103/161/91 106/162/197 105/86/136
s 10
f 103/161/96 104/88/95 107/91/139 106/162/198
s 11
f 105/86/136 106/162/197 109/163/199 108/90/133
s 10
f 106/162/198 107/91/139 110/81/128 109/163/200
s 11
f 108/90/133 109/163/199 112/164/201 111/84/134
s 10
f 109/163/200 110/81/128 113/93/131 112/164/202
f 63/187/141 64/141/203 112/164/202 113/93/131
s 11
f 64/141/80 65/96/79 111/84/134 112/164/201
s 6
f 52/100/68 53/134/67 115/165/98 116/50/97
s 10
f 53/134/204 54/191/144 114/108/102 115/165/101
s 6
f 117/106/100 118/166/99 121/167/205 122/104/150
s 10
f 118/166/104 119/102/103 120/110/149 121/167/206
s 6
f 122/104/150 121/167/205 124/168/178 125/115/157
s 10
f 121/167/206 120/110/149 123/112/154 124/168/176
f 128/173/207 127/206/208 130/209/209 129/169/210
s 23
f 127/207/211 126/200/212 131/170/213 130/208/214
f 37/171/215 126/200/212 132/172/216 36/179/217
s 10
f 128/173/207 28/188/218 25/174/219 134/181/220
f 137/175/221 4/182/222 3/176/223 140/185/224
s 23
f 35/177/225 135/180/226 138/178/227 34/183/228
f 36/179/217 132/172/216 135/180/226 35/177/225
s 10
f 134/181/220 25/174/219 4/182/222 137/175/221
s 23
f 34/183/228 138/178/227 141/184/229 33/193/230
s 10
f 140/185/224 3/176/223 11/186/231 143/189/232
f 63/187/141 31/94/140 28/188/218 128/173/207 129/169/210
f 143/189/232 11/186/231 16/190/145 54/191/144 144/205/233
s 23
f 39/192/234 40/129/235 38/66/236 33/193/230 141/184/229 145/204/237 50/194/238 51/195/239
f 84/196/240 85/197/241 61/198/242 62/199/243 131/170/244 126/200/212 37/171/215 86/128/245
s 10
f 62/140/246 64/141/203 63/187/141 129/169/210 130/209/247 131/201/248
f 144/205/233 54/191/144 53/134/204 50/202/249 145/203/250 146/219/251
s 23
f 126/200/212 127/207/211 133/211/252 132/172/216
s 10
f 127/206/208 128/173/207 134/181/220 133/210/253
s 23
f 132/172/216 133/211/252 136/213/254 135/180/226
s 10
f 133/210/253 134/181/220 137/175/221 136/212/255
s 23
f 135/180/226 136/213/254 139/215/256 138/178/227
s 10
f 136/212/255 137/175/221 140/185/224 139/214/257
s 23
f 138/178/227 139/215/256 142/217/258 141/184/229
s 10
f 139/214/257 140/185/224 143/189/232 142/216/259
s 23
f 141/184/229 142/217/258 146/218/260 145/204/261
s 10
f 142/216/259 143/189/232 144/205/233 146/219/262
